<svg xmlns="http://www.w3.org/2000/svg" width="36.996" height="37" viewBox="0 0 36.996 37">
  <defs>
    <style>
      .cls-1 {
        fill: #48abf7;
      }
    </style>
  </defs>
  <path id="União_27" data-name="União 27" class="cls-1" d="M20713.3,21157v-11.719h1.234v1.23h1.234v-8.016a3.091,3.091,0,0,0-3.084-3.082h-5.551v-1.23h5.551a4.313,4.313,0,0,1,4.314,4.313v9.25h-2.465V21157Zm-3.152,0v-9.254h1.373V21157Zm-3.014,0v-9.254h-2.465v-1.234h2.465v-1.23h1.234V21157Zm-4.934,0v-14.186h1.234v1.232h1.234v-9.25a4.326,4.326,0,0,0-4.318-4.316h-3.7a4.327,4.327,0,0,0-4.318,4.316v9.25h1.234v-1.232h1.232V21157h-1.232v-11.719h-2.469V21134.8a5.554,5.554,0,0,1,5.553-5.547h3.7a5.554,5.554,0,0,1,5.553,5.547v10.484h-2.469V21157Zm-4.385,0v-11.652h1.371V21157Zm-9.182,0v-11.719h1.234v1.23h2.465v1.234h-2.465V21157Zm-3.152,0v-9.254h1.371V21157Zm-3.014,0v-9.254H20680v-9.25a4.313,4.313,0,0,1,4.314-4.312h5.551v1.23h-5.551a3.091,3.091,0,0,0-3.084,3.082v8.016h1.234v-1.23h1.234V21157Zm24.666-27.137a3.7,3.7,0,1,1,3.7,3.7A3.7,3.7,0,0,1,20707.133,21129.867Zm1.234,0a2.466,2.466,0,1,0,2.467-2.467A2.463,2.463,0,0,0,20708.367,21129.867Zm-25.9,0a3.7,3.7,0,1,1,3.7,3.7A3.7,3.7,0,0,1,20682.467,21129.867Zm1.234,0a2.466,2.466,0,1,0,2.465-2.467A2.464,2.464,0,0,0,20683.7,21129.867Zm10.482-5.551a4.316,4.316,0,1,1,4.316,4.318A4.314,4.314,0,0,1,20694.184,21124.316Zm1.232,0a3.084,3.084,0,1,0,3.084-3.082A3.087,3.087,0,0,0,20695.416,21124.316Z" transform="translate(-20680.002 -21120.004)"/>
</svg>
