<svg xmlns="http://www.w3.org/2000/svg" width="39.006" height="39.896" viewBox="0 0 39.006 39.896">
  <defs>
    <style>
      .cls-1 {
        fill: #6861ce;
      }
    </style>
  </defs>
  <path id="União_25" data-name="União 25" class="cls-1" d="M20698.734,21159.113v-6.3a.768.768,0,1,1,1.535,0v6.3a.768.768,0,1,1-1.535,0Zm-10.293-4.514a2.916,2.916,0,0,1-1.051-3.279l2.951-9.178-7.717-5.654a2.918,2.918,0,0,1-1.057-3.275,2.848,2.848,0,0,1,2.748-2.029h9.508l2.9-9.152a2.841,2.841,0,0,1,2.746-2.033h0a2.838,2.838,0,0,1,2.742,2.025l2.93,9.16h1.031a.779.779,0,0,1,0,1.559h-1.592a.761.761,0,0,1-.729-.539l-3.1-9.7a1.316,1.316,0,0,0-1.283-.943h0a1.318,1.318,0,0,0-1.285.951l-3.072,9.693a.771.771,0,0,1-.73.539h-10.068a1.324,1.324,0,0,0-1.285.949,1.351,1.351,0,0,0,.5,1.535l8.168,5.98a.8.8,0,0,1,.281.873l-3.121,9.723a1.348,1.348,0,0,0,.488,1.537,1.3,1.3,0,0,0,1.59-.006l8.145-6.021a.768.768,0,0,1,.9,0l8.113,5.988a1.306,1.306,0,0,0,1.594,0,1.342,1.342,0,0,0,.488-1.531l-3.129-9.672a.793.793,0,0,1,.281-.875l8.145-6a1.346,1.346,0,0,0,.492-1.531,1.32,1.32,0,0,0-1.283-.949h-1.588a.779.779,0,0,1,0-1.559h1.588a2.855,2.855,0,0,1,2.748,2.023,2.917,2.917,0,0,1-1.055,3.277l-7.691,5.662,2.949,9.129a2.911,2.911,0,0,1-1.043,3.283,2.8,2.8,0,0,1-3.4,0l-7.664-5.648-7.693,5.688a2.815,2.815,0,0,1-3.395,0Zm29.551-8.553-5.9-1.949a.778.778,0,0,1-.5-.98.765.765,0,0,1,.969-.5l5.906,1.949a.781.781,0,0,1,.5.98.769.769,0,0,1-.732.539A.865.865,0,0,1,20717.992,21146.047Zm-37.959-.5a.778.778,0,0,1,.5-.98l5.9-1.949a.765.765,0,0,1,.971.5.778.778,0,0,1-.5.98l-5.9,1.949a.852.852,0,0,1-.238.037A.769.769,0,0,1,20680.033,21145.545Zm29.061-13.029a.783.783,0,0,1,0-1.1.761.761,0,0,1,.541-.227.77.77,0,0,1,.545.227.793.793,0,0,1,0,1.1.77.77,0,0,1-.545.227A.761.761,0,0,1,20709.094,21132.516Zm-2.121-3.824a.791.791,0,0,1-.168-1.092l3.65-5.1a.761.761,0,0,1,1.072-.17.786.786,0,0,1,.172,1.086l-3.652,5.1a.76.76,0,0,1-.621.32A.78.78,0,0,1,20706.973,21128.691Zm-16.021-.176-3.654-5.1a.79.79,0,0,1,.172-1.086.764.764,0,0,1,1.074.17l3.648,5.1a.789.789,0,0,1-.168,1.092.779.779,0,0,1-.451.145A.757.757,0,0,1,20690.951,21128.516Z" transform="translate(-20679.996 -21119.998)"/>
</svg>
