<svg xmlns="http://www.w3.org/2000/svg" width="38.182" height="33.66" viewBox="0 0 38.182 33.66">
  <defs>
    <style>
      .cls-1 {
        fill: #ffad46;
      }
    </style>
  </defs>
  <path id="União_26" data-name="União 26" class="cls-1" d="M29.432,33.66h-.042a.772.772,0,0,1-.242-.051l-.016-.006-7.95-3.2a.8.8,0,0,1-.5-.744V20.036h0c0-.006,0-.013,0-.019h0a.8.8,0,0,1,.5-.723l7.955-3.206a.786.786,0,0,1,.59,0l7.93,3.2a.792.792,0,0,1,.18.093l.007,0,0,0a.8.8,0,0,1,.334.632h0c0,.006,0,.013,0,.019h0v9.616a.8.8,0,0,1-.5.744l-7.951,3.2-.02.008h0l-.01,0-.011,0h0a.777.777,0,0,1-.192.039h-.061Zm.8-1.984,6.364-2.564V21.219l-6.364,2.564Zm-7.954-2.564,6.364,2.564V23.783l-6.364-2.564Zm1.347-9.076,5.812,2.342,5.812-2.342-5.812-2.342ZM8.75,33.66H8.708a.781.781,0,0,1-.254-.056L.5,30.4a.8.8,0,0,1-.5-.744V20.036H0c0-.006,0-.013,0-.019H0a.8.8,0,0,1,.465-.708l0,0,.008,0,.029-.012,7.947-3.2a.786.786,0,0,1,.59,0l7.932,3.2a.789.789,0,0,1,.149.073.8.8,0,0,1,.375.659h0c0,.006,0,.013,0,.019h0v9.616a.8.8,0,0,1-.5.744L9.05,33.6l-.021.008h0l-.011,0-.009,0-.006,0-.013,0h0l-.036.01h0l-.019,0h0l-.018,0h0l-.017,0h0l-.016,0h0l-.015,0h0l-.014,0H8.75ZM1.59,29.111l6.365,2.564V23.783L1.59,21.218Zm7.955,2.564,6.364-2.564V21.218L9.545,23.783ZM2.939,20.035,8.75,22.377l5.811-2.342L8.75,17.693Zm16.152-2.4h-.038a.788.788,0,0,1-.268-.061l-7.944-3.2a.8.8,0,0,1-.5-.744V4.007c0-.006,0-.012,0-.018v-.1l0-.015V3.869l0-.009,0-.008,0-.009,0-.01,0-.013,0-.01,0-.007,0-.011V3.786a.8.8,0,0,1,.468-.523L18.8.058a.777.777,0,0,1,.59,0l7.926,3.194a.8.8,0,0,1,.5.553v0l0,.018h0l0,.018v.006l0,.012v.006l0,.015v0l0,.017v.043c0,.006,0,.012,0,.018v.025c0,.006,0,.012,0,.018v9.617a.8.8,0,0,1-.5.744l-7.954,3.206q-.038.015-.076.026l-.013,0h0a.787.787,0,0,1-.148.025h-.057Zm.8-1.984,6.364-2.564V5.19L19.886,7.756Zm-7.954-2.564,6.363,2.564V7.755L11.932,5.19Zm1.347-9.076,5.812,2.342L24.9,4.007,19.091,1.666Z"/>
</svg>
