<svg xmlns="http://www.w3.org/2000/svg" width="28.986" height="34.077" viewBox="0 0 28.986 34.077">
  <defs>
    <style>
      .cls-1 {
        fill: #1572e8;
      }
    </style>
  </defs>
  <g id="user_1_" data-name="user (1)" transform="translate(-36.073)">
    <g id="Grupo_488" data-name="Grupo 488" transform="translate(36.073)">
      <path id="Caminho_244" data-name="Caminho 244" class="cls-1" d="M144.323,18.362h.226a6.512,6.512,0,0,0,4.975-2.152c2.717-3.063,2.265-8.313,2.216-8.814-.176-3.761-1.955-5.561-3.422-6.4a7.846,7.846,0,0,0-3.8-1h-.12a7.858,7.858,0,0,0-3.8.967c-1.482.84-3.288,2.639-3.465,6.429-.049.5-.5,5.751,2.216,8.814A6.486,6.486,0,0,0,144.323,18.362Zm-5.3-10.79c0-.021.007-.042.007-.056.233-5.06,3.825-5.6,5.363-5.6h.085c1.905.042,5.144.819,5.363,5.6a.137.137,0,0,0,.007.056c.007.049.5,4.848-1.743,7.374a4.625,4.625,0,0,1-3.634,1.51H144.4a4.61,4.61,0,0,1-3.627-1.51C138.537,12.434,139.016,7.614,139.024,7.572Z" transform="translate(-129.954)"/>
      <path id="Caminho_245" data-name="Caminho 245" class="cls-1" d="M65.057,268.02V268c0-.056-.007-.113-.007-.176-.042-1.4-.134-4.665-3.2-5.709l-.071-.021a20.361,20.361,0,0,1-5.857-2.667.952.952,0,1,0-1.094,1.56,21.979,21.979,0,0,0,6.443,2.943c1.644.586,1.828,2.343,1.877,3.952a1.417,1.417,0,0,0,.007.176,12.81,12.81,0,0,1-.148,2.181,25.971,25.971,0,0,1-12.441,2.893,26.12,26.12,0,0,1-12.448-2.9,12.128,12.128,0,0,1-.148-2.181c0-.056.007-.113.007-.176.049-1.609.233-3.366,1.877-3.952a22.182,22.182,0,0,0,6.443-2.943.952.952,0,1,0-1.094-1.56,20.14,20.14,0,0,1-5.857,2.667c-.028.007-.049.014-.071.021-3.063,1.052-3.154,4.319-3.2,5.709a1.418,1.418,0,0,1-.007.176v.021a10.821,10.821,0,0,0,.36,3.2.905.905,0,0,0,.367.445c.212.141,5.286,3.373,13.775,3.373s13.563-3.239,13.775-3.373a.944.944,0,0,0,.367-.445A11.353,11.353,0,0,0,65.057,268.02Z" transform="translate(-36.073 -240.95)"/>
    </g>
  </g>
</svg>
